<svg width="37" height="40" viewBox="0 0 37 40" fill="none" xmlns="http://www.w3.org/2000/svg">
<path d="M1 1L5.5 3C5.5 3 7 3.5 7 4.2247C7 4.92711 7 7.11693 7 8.5M32.5 32C25.6667 32 11.7 32 10.5 32C9 32 7 31.5 7 29C7 28.3492 7 26.2689 7 23.5M7 8.5L34.5 12.5C34.5 12.5 36 12.7788 36 14C36 17.0194 36 21.3942 36 22.5C36 24 35 25 32.5 25C30 25 11 25 9.5 25C8.3 25 7.33333 24 7 23.5M7 8.5C7 13.3276 7 19.2319 7 23.5" stroke="#CDCDCD" stroke-width="2" stroke-linecap="round"/>
<circle cx="14" cy="35.5" r="3.5" stroke="#CDCDCD" stroke-width="2"/>
<circle cx="32" cy="35.5" r="3.5" stroke="#CDCDCD" stroke-width="2"/>
</svg>
