<svg width="31" height="31" viewBox="0 0 31 31" fill="none" xmlns="http://www.w3.org/2000/svg">
<path d="M11.2104 25.2781L11.2104 25.2781L11.2037 25.2713L4.75517 18.8236C2.15846 16.1716 1.54746 13.5208 1.72561 11.2299C1.90941 8.86653 2.94689 6.77516 3.82454 5.40352C4.13388 4.92007 4.4145 4.53981 4.61403 4.28468C4.71362 4.15734 4.79251 4.06182 4.84402 4.00087C4.86352 3.9778 4.87907 3.95972 4.8903 3.94679L6.86478 1.9723C7.29792 1.53916 7.97381 1.55197 8.37455 1.95271L12.3472 5.92536C12.7479 6.3261 12.7607 7.00198 12.3276 7.43513L10.3796 9.38315C10.3652 9.39495 10.3497 9.40787 10.3331 9.4219C10.2573 9.48607 10.1574 9.57533 10.046 9.68719C9.83052 9.90359 9.53616 10.2403 9.30095 10.6774C9.06451 11.1169 8.85293 11.725 8.91641 12.4391C8.98218 13.1791 9.32793 13.8585 9.90528 14.4358L15.8272 20.3578C16.299 20.8296 16.8572 21.113 17.4511 21.2126C18.5029 21.389 19.4056 20.9535 19.8969 20.6549C20.1679 20.4901 20.3888 20.3209 20.5422 20.1933C20.62 20.1286 20.6832 20.0724 20.7297 20.0295C20.7531 20.008 20.7724 19.9897 20.7875 19.9751L20.807 19.9562L20.8143 19.949L20.8174 19.9459L20.8188 19.9446L20.8194 19.9439C20.8197 19.9436 20.82 19.9433 19.7594 18.8826L20.82 19.9433L22.8279 17.9354C23.261 17.5023 23.9369 17.5151 24.3377 17.9158L28.3103 21.8885C28.7111 22.2892 28.7239 22.9651 28.2907 23.3982L26.3163 25.3727C26.3034 25.3839 26.2853 25.3994 26.2623 25.4189C26.2014 25.4703 26.1059 25.5492 25.9785 25.6487C25.7234 25.8482 25.3431 26.1286 24.8596 26.4378C23.4787 27.3206 21.3687 28.3643 18.985 28.536C16.6741 28.7024 13.9937 28.062 11.3136 25.382C11.279 25.3474 11.2446 25.3128 11.2104 25.2781Z" stroke="#9A9A9A" stroke-width="3"/>
</svg>
