<svg width="240" height="160" viewBox="0 0 265 192" fill="none" xmlns="http://www.w3.org/2000/svg">
<mask id="path-1-inside-1_143_1071" fill="white">
<path fill-rule="evenodd" clip-rule="evenodd" d="M65.1243 176.542C64.6213 175.419 64.3416 174.175 64.3416 172.865L64.3416 137.938C64.3416 132.968 68.371 128.938 73.3416 128.938L77.1523 128.938C82.1228 128.938 86.1523 132.968 86.1523 137.938L86.1522 180.724C86.1522 180.729 86.1523 180.734 86.1523 180.739C86.1523 180.744 86.1522 180.749 86.1522 180.754V181.865H86.0984C85.5513 187.556 80.9017 192 75.2469 192C69.224 192 64.3416 186.958 64.3416 180.739C64.3416 179.255 64.6194 177.839 65.1243 176.542Z"/>
</mask>
<path fill-rule="evenodd" clip-rule="evenodd" d="M65.1243 176.542C64.6213 175.419 64.3416 174.175 64.3416 172.865L64.3416 137.938C64.3416 132.968 68.371 128.938 73.3416 128.938L77.1523 128.938C82.1228 128.938 86.1523 132.968 86.1523 137.938L86.1522 180.724C86.1522 180.729 86.1523 180.734 86.1523 180.739C86.1523 180.744 86.1522 180.749 86.1522 180.754V181.865H86.0984C85.5513 187.556 80.9017 192 75.2469 192C69.224 192 64.3416 186.958 64.3416 180.739C64.3416 179.255 64.6194 177.839 65.1243 176.542Z" fill="#D7D7D7"/>
<path d="M64.3416 172.865L63.3416 172.865V172.865H64.3416ZM65.1243 176.542L66.0562 176.904L66.2079 176.514L66.0369 176.133L65.1243 176.542ZM64.3416 137.938L65.3416 137.938V137.938L64.3416 137.938ZM73.3416 128.938L73.3416 127.938H73.3416V128.938ZM77.1523 128.938L77.1522 129.938L77.1523 129.938L77.1523 128.938ZM86.1523 137.938L87.1523 137.938V137.938H86.1523ZM86.1522 180.724L85.1522 180.724L85.1522 180.725L86.1522 180.724ZM86.1522 180.754L85.1522 180.753V180.754H86.1522ZM86.1522 181.865V182.865H87.1522V181.865H86.1522ZM86.0984 181.865V180.865H85.1899L85.103 181.769L86.0984 181.865ZM63.3416 172.865C63.3416 174.318 63.6522 175.702 64.2117 176.951L66.0369 176.133C65.5904 175.136 65.3416 174.031 65.3416 172.865H63.3416ZM63.3416 137.938L63.3416 172.865L65.3416 172.865L65.3416 137.938L63.3416 137.938ZM73.3416 127.938C67.8187 127.938 63.3416 132.416 63.3416 137.938L65.3416 137.938C65.3416 133.52 68.9233 129.938 73.3416 129.938V127.938ZM77.1523 127.938L73.3416 127.938L73.3416 129.938L77.1522 129.938L77.1523 127.938ZM87.1523 137.938C87.1523 132.416 82.6751 127.938 77.1523 127.938L77.1523 129.938C81.5705 129.938 85.1523 133.52 85.1523 137.938H87.1523ZM87.1522 180.724L87.1523 137.938L85.1523 137.938L85.1522 180.724L87.1522 180.724ZM85.1522 180.725C85.1522 180.73 85.1523 180.735 85.1523 180.739H87.1523C87.1523 180.734 87.1522 180.728 87.1522 180.723L85.1522 180.725ZM85.1523 180.739C85.1523 180.743 85.1522 180.748 85.1522 180.753L87.1522 180.755C87.1522 180.75 87.1523 180.744 87.1523 180.739H85.1523ZM87.1522 181.865V180.754H85.1522V181.865H87.1522ZM86.0984 182.865H86.1522V180.865H86.0984V182.865ZM85.103 181.769C84.6022 186.978 80.3556 191 75.2469 191V193C81.4478 193 86.5004 188.133 87.0938 181.961L85.103 181.769ZM75.2469 191C69.8063 191 65.3416 186.436 65.3416 180.739H63.3416C63.3416 187.48 68.6418 193 75.2469 193V191ZM65.3416 180.739C65.3416 179.381 65.5958 178.087 66.0562 176.904L64.1924 176.179C63.6431 177.59 63.3416 179.13 63.3416 180.739H65.3416Z" fill="#9F9F9F" mask="url(#path-1-inside-1_143_1071)"/>
<mask id="path-3-inside-2_143_1071" fill="white">
<path fill-rule="evenodd" clip-rule="evenodd" d="M211.575 16.0426C211.567 15.8571 211.564 15.6709 211.564 15.4839C211.564 6.93236 219.254 0 228.74 0C234.392 0 239.406 2.46107 242.536 6.25932C251.58 11.5093 265.518 21.1825 264.727 27.3079C263.637 35.7537 250.005 35.1906 247.006 34.0645C245.208 33.9931 242.831 34.1934 244.2 35.2857C254.031 37.9949 261.183 46.2546 261.183 56.0235C261.183 57.4076 261.04 58.7614 260.765 60.0734C260.863 67.2666 259.073 76.521 254.095 88.3988C251.259 92.0023 245.825 97.4076 243.462 99.6598C242.371 100.411 239.427 101.799 236.373 101.349C233.32 100.899 233.647 101.537 234.192 101.912C235.101 104.446 237.573 109.795 240.19 110.921C240.771 111.171 241.403 111.394 242.062 111.626C245.118 112.706 248.756 113.99 250.55 119.085C252.295 124.04 248.915 128.845 247.006 130.628C246.824 130.909 246.243 131.416 245.37 131.191C244.498 130.965 241.553 140.481 240.19 145.267L220.561 159.906C219.925 160.282 209.873 161.764 206.384 161.314C205.93 161.255 205.242 159.78 204.369 157.165C198.392 160.006 191.706 161.595 184.648 161.595H107.07C88.4912 161.595 72.485 150.581 65.2246 134.726C64.1746 136.005 62.5812 136.821 60.7973 136.821C57.6353 136.821 55.072 134.258 55.072 131.096V59.2151C55.072 56.0531 57.6353 53.4897 60.7973 53.4897C63.77 53.4897 66.2136 55.7553 66.4955 58.654C66.7512 58.1767 67.0151 57.7045 67.287 57.2374C65.1633 55.5911 63.7963 53.0153 63.7963 50.1202V31.7792C63.7963 17.6486 75.2514 6.19355 89.3819 6.19355C93.6211 6.19355 97.0576 9.63008 97.0576 13.8692V35.4388C100.281 34.7233 103.631 34.346 107.07 34.346H120.579C120.529 33.9777 120.504 33.6018 120.504 33.2199C120.504 28.5555 124.285 24.7742 128.95 24.7742H140.412C145.077 24.7742 148.858 28.5555 148.858 33.2199C148.858 33.6018 148.833 33.9777 148.784 34.346H177.212H180.905C192.961 33.9817 211.564 30.053 211.564 16.0469L211.575 16.0426Z"/>
</mask>
<path fill-rule="evenodd" clip-rule="evenodd" d="M211.575 16.0426C211.567 15.8571 211.564 15.6709 211.564 15.4839C211.564 6.93236 219.254 0 228.74 0C234.392 0 239.406 2.46107 242.536 6.25932C251.58 11.5093 265.518 21.1825 264.727 27.3079C263.637 35.7537 250.005 35.1906 247.006 34.0645C245.208 33.9931 242.831 34.1934 244.2 35.2857C254.031 37.9949 261.183 46.2546 261.183 56.0235C261.183 57.4076 261.04 58.7614 260.765 60.0734C260.863 67.2666 259.073 76.521 254.095 88.3988C251.259 92.0023 245.825 97.4076 243.462 99.6598C242.371 100.411 239.427 101.799 236.373 101.349C233.32 100.899 233.647 101.537 234.192 101.912C235.101 104.446 237.573 109.795 240.19 110.921C240.771 111.171 241.403 111.394 242.062 111.626C245.118 112.706 248.756 113.99 250.55 119.085C252.295 124.04 248.915 128.845 247.006 130.628C246.824 130.909 246.243 131.416 245.37 131.191C244.498 130.965 241.553 140.481 240.19 145.267L220.561 159.906C219.925 160.282 209.873 161.764 206.384 161.314C205.93 161.255 205.242 159.78 204.369 157.165C198.392 160.006 191.706 161.595 184.648 161.595H107.07C88.4912 161.595 72.485 150.581 65.2246 134.726C64.1746 136.005 62.5812 136.821 60.7973 136.821C57.6353 136.821 55.072 134.258 55.072 131.096V59.2151C55.072 56.0531 57.6353 53.4897 60.7973 53.4897C63.77 53.4897 66.2136 55.7553 66.4955 58.654C66.7512 58.1767 67.0151 57.7045 67.287 57.2374C65.1633 55.5911 63.7963 53.0153 63.7963 50.1202V31.7792C63.7963 17.6486 75.2514 6.19355 89.3819 6.19355C93.6211 6.19355 97.0576 9.63008 97.0576 13.8692V35.4388C100.281 34.7233 103.631 34.346 107.07 34.346H120.579C120.529 33.9777 120.504 33.6018 120.504 33.2199C120.504 28.5555 124.285 24.7742 128.95 24.7742H140.412C145.077 24.7742 148.858 28.5555 148.858 33.2199C148.858 33.6018 148.833 33.9777 148.784 34.346H177.212H180.905C192.961 33.9817 211.564 30.053 211.564 16.0469L211.575 16.0426Z" fill="#DCDCDC"/>
<path d="M211.575 16.0426L211.944 16.9719L212.602 16.7106L212.574 16.0033L211.575 16.0426ZM242.536 6.25932L241.764 6.89528L241.879 7.03396L242.034 7.12417L242.536 6.25932ZM264.727 27.3079L263.736 27.1799L263.736 27.1799L264.727 27.3079ZM247.006 34.0645L247.358 33.1283L247.207 33.0717L247.046 33.0653L247.006 34.0645ZM244.2 35.2857L243.577 36.0675L243.737 36.1953L243.935 36.2498L244.2 35.2857ZM260.765 60.0734L259.786 59.8686L259.764 59.9766L259.765 60.0869L260.765 60.0734ZM254.095 88.3988L254.881 89.0172L254.964 88.9106L255.017 88.7854L254.095 88.3988ZM243.462 99.6598L244.029 100.484L244.094 100.438L244.152 100.384L243.462 99.6598ZM234.192 101.912L235.134 101.574L235.025 101.271L234.759 101.088L234.192 101.912ZM240.19 110.921L239.795 111.839L239.795 111.839L240.19 110.921ZM242.062 111.626L242.395 110.684L242.395 110.684L242.062 111.626ZM250.55 119.085L251.494 118.753L251.494 118.753L250.55 119.085ZM247.006 130.628L246.323 129.897L246.233 129.981L246.166 130.085L247.006 130.628ZM245.37 131.191L245.12 132.159L245.12 132.159L245.37 131.191ZM240.19 145.267L240.788 146.068L241.059 145.866L241.152 145.541L240.19 145.267ZM220.561 159.906L221.069 160.767L221.115 160.74L221.159 160.708L220.561 159.906ZM206.384 161.314L206.256 162.306L206.256 162.306L206.384 161.314ZM204.369 157.165L205.318 156.849L204.96 155.777L203.94 156.262L204.369 157.165ZM65.2246 134.726L66.1338 134.31L65.4674 132.855L64.4517 134.092L65.2246 134.726ZM66.4955 58.654L65.5002 58.7508L65.8195 62.0335L67.377 59.1263L66.4955 58.654ZM67.287 57.2374L68.1512 57.7405L68.5918 56.9837L67.8996 56.4471L67.287 57.2374ZM97.0576 35.4388H96.0576V36.6851L97.2743 36.415L97.0576 35.4388ZM120.579 34.346V35.346H121.721L121.57 34.214L120.579 34.346ZM148.784 34.346L147.792 34.214L147.642 35.346H148.784V34.346ZM180.905 34.346V35.346H180.92L180.935 35.3456L180.905 34.346ZM211.564 16.0469L211.195 15.1176L210.564 15.3682V16.0469H211.564ZM210.564 15.4839C210.564 15.684 210.568 15.8834 210.576 16.0819L212.574 16.0033C212.567 15.8309 212.564 15.6578 212.564 15.4839H210.564ZM228.74 -1C218.802 -1 210.564 6.28505 210.564 15.4839H212.564C212.564 7.57968 219.706 1 228.74 1V-1ZM243.308 5.62336C239.982 1.58705 234.681 -1 228.74 -1V1C234.103 1 238.831 3.33509 241.764 6.89528L243.308 5.62336ZM265.719 27.436C265.967 25.5175 265.056 23.4981 263.676 21.5876C262.273 19.645 260.254 17.6381 257.968 15.6935C253.389 11.7998 247.587 8.03509 243.038 5.39448L242.034 7.12417C246.529 9.73356 252.219 13.4305 256.672 17.2172C258.901 19.1129 260.785 21.0009 262.055 22.7588C263.348 24.5488 263.883 26.0356 263.736 27.1799L265.719 27.436ZM246.655 35.0007C247.549 35.3366 249.085 35.5895 250.841 35.6705C252.621 35.7526 254.723 35.6623 256.776 35.2567C260.809 34.46 265.087 32.3299 265.719 27.436L263.736 27.1799C263.277 30.7317 260.194 32.5429 256.389 33.2946C254.523 33.6632 252.586 33.7489 250.933 33.6726C249.255 33.5952 247.963 33.3555 247.358 33.1283L246.655 35.0007ZM244.824 34.504C244.701 34.4056 244.697 34.3759 244.723 34.422C244.761 34.4884 244.842 34.6913 244.755 34.9467C244.68 35.1674 244.536 35.2526 244.535 35.2528C244.528 35.2572 244.566 35.2343 244.68 35.2031C245.168 35.0692 246.079 35.0285 246.966 35.0637L247.046 33.0653C246.136 33.0292 244.959 33.0528 244.151 33.2743C243.941 33.3319 243.705 33.4161 243.489 33.5481C243.281 33.676 242.995 33.9094 242.862 34.3015C242.716 34.7281 242.822 35.1253 242.985 35.4114C243.136 35.6773 243.358 35.8928 243.577 36.0675L244.824 34.504ZM262.183 56.0235C262.183 45.7343 254.659 37.1306 244.466 34.3217L243.935 36.2498C253.404 38.8592 260.183 46.7748 260.183 56.0235H262.183ZM261.744 60.2781C262.032 58.8993 262.183 57.477 262.183 56.0235H260.183C260.183 57.3382 260.047 58.6234 259.786 59.8686L261.744 60.2781ZM255.017 88.7854C260.032 76.821 261.865 67.428 261.765 60.0598L259.765 60.0869C259.861 67.1053 258.115 76.221 253.172 88.0122L255.017 88.7854ZM244.152 100.384C246.515 98.1309 251.997 92.6824 254.881 89.0172L253.309 87.7805C250.522 91.3223 245.134 96.6843 242.772 98.936L244.152 100.384ZM236.228 102.338C239.621 102.839 242.819 101.316 244.029 100.484L242.895 98.8361C241.923 99.5049 239.233 100.76 236.519 100.36L236.228 102.338ZM234.759 101.088C234.659 101.019 234.69 101.014 234.744 101.111C234.777 101.168 234.867 101.353 234.824 101.613C234.776 101.907 234.595 102.084 234.477 102.16C234.38 102.223 234.322 102.224 234.377 102.214C234.422 102.206 234.515 102.195 234.674 102.194C234.992 102.192 235.488 102.229 236.228 102.338L236.519 100.36C235.732 100.244 235.124 100.191 234.662 100.194C234.43 100.196 234.214 100.211 234.018 100.247C233.832 100.28 233.602 100.344 233.39 100.482C233.156 100.633 232.915 100.898 232.851 101.287C232.792 101.643 232.911 101.931 233.003 102.094C233.177 102.402 233.453 102.617 233.625 102.736L234.759 101.088ZM240.586 110.002C240.126 109.804 239.597 109.382 239.028 108.735C238.469 108.098 237.922 107.301 237.412 106.436C236.391 104.706 235.571 102.795 235.134 101.574L233.251 102.25C233.722 103.563 234.592 105.593 235.689 107.452C236.238 108.383 236.857 109.292 237.525 110.054C238.185 110.805 238.946 111.474 239.795 111.839L240.586 110.002ZM242.395 110.684C241.729 110.448 241.13 110.236 240.586 110.002L239.795 111.839C240.412 112.105 241.077 112.339 241.729 112.569L242.395 110.684ZM251.494 118.753C250.528 116.011 249.043 114.25 247.364 113.039C245.715 111.85 243.907 111.218 242.395 110.684L241.729 112.569C243.272 113.114 244.812 113.664 246.194 114.661C247.547 115.636 248.779 117.065 249.607 119.417L251.494 118.753ZM247.689 131.358C248.733 130.382 250.143 128.623 251.069 126.436C251.999 124.24 252.473 121.534 251.494 118.753L249.607 119.417C250.373 121.591 250.029 123.764 249.227 125.656C248.423 127.556 247.187 129.09 246.323 129.897L247.689 131.358ZM245.12 132.159C246.526 132.522 247.503 131.701 247.846 131.17L246.166 130.085C246.174 130.073 246.164 130.09 246.131 130.12C246.1 130.147 246.06 130.176 246.013 130.198C245.931 130.238 245.809 130.271 245.62 130.222L245.12 132.159ZM241.152 145.541C241.831 143.157 242.902 139.601 243.91 136.675C244.415 135.208 244.896 133.925 245.297 133.032C245.5 132.578 245.665 132.268 245.783 132.092C245.846 131.999 245.862 131.995 245.826 132.026C245.819 132.031 245.545 132.268 245.12 132.159L245.62 130.222C245.087 130.085 244.688 130.37 244.541 130.492C244.366 130.64 244.227 130.822 244.123 130.977C243.908 131.297 243.689 131.731 243.472 132.212C243.033 133.19 242.529 134.542 242.019 136.024C240.995 138.996 239.913 142.59 239.229 144.993L241.152 145.541ZM221.159 160.708L240.788 146.068L239.592 144.465L219.963 159.105L221.159 160.708ZM206.256 162.306C208.144 162.549 211.652 162.272 214.661 161.913C216.189 161.73 217.631 161.522 218.736 161.334C219.287 161.24 219.763 161.15 220.127 161.069C220.309 161.029 220.473 160.989 220.611 160.95C220.713 160.921 220.906 160.864 221.069 160.767L220.052 159.045C220.136 158.995 220.175 158.994 220.059 159.028C219.978 159.051 219.858 159.081 219.697 159.116C219.376 159.187 218.935 159.271 218.4 159.362C217.333 159.544 215.924 159.748 214.424 159.927C211.375 160.29 208.113 160.529 206.512 160.322L206.256 162.306ZM203.421 157.482C203.861 158.802 204.267 159.871 204.632 160.631C204.813 161.007 205.003 161.348 205.203 161.612C205.304 161.745 205.428 161.887 205.579 162.007C205.725 162.124 205.954 162.267 206.256 162.306L206.512 160.322C206.7 160.346 206.808 160.43 206.827 160.445C206.85 160.463 206.839 160.459 206.798 160.405C206.714 160.295 206.592 160.092 206.435 159.765C206.125 159.119 205.75 158.144 205.318 156.849L203.421 157.482ZM184.648 162.595C191.858 162.595 198.69 160.971 204.799 158.069L203.94 156.262C198.095 159.04 191.554 160.595 184.648 160.595V162.595ZM107.07 162.595H184.648V160.595H107.07V162.595ZM64.3154 135.143C71.7326 151.34 88.0858 162.595 107.07 162.595V160.595C88.8967 160.595 73.2374 149.822 66.1338 134.31L64.3154 135.143ZM64.4517 134.092C63.5835 135.149 62.2693 135.821 60.7973 135.821V137.821C62.8932 137.821 64.7657 136.861 65.9975 135.361L64.4517 134.092ZM60.7973 135.821C58.1876 135.821 56.072 133.706 56.072 131.096H54.072C54.072 134.81 57.083 137.821 60.7973 137.821V135.821ZM56.072 131.096V59.2151H54.072V131.096H56.072ZM56.072 59.2151C56.072 56.6053 58.1876 54.4897 60.7973 54.4897V52.4897C57.083 52.4897 54.072 55.5008 54.072 59.2151H56.072ZM60.7973 54.4897C63.2502 54.4897 65.2676 56.3595 65.5002 58.7508L67.4908 58.5572C67.1596 55.1512 64.2899 52.4897 60.7973 52.4897V54.4897ZM66.4227 56.7344C66.1449 57.2116 65.8753 57.6941 65.614 58.1818L67.377 59.1263C67.6271 58.6594 67.8852 58.1974 68.1512 57.7405L66.4227 56.7344ZM62.7963 50.1202C62.7963 53.3375 64.3168 56.2002 66.6743 58.0278L67.8996 56.4471C66.0098 54.982 64.7963 52.6931 64.7963 50.1202H62.7963ZM62.7963 31.7792V50.1202H64.7963V31.7792H62.7963ZM89.3819 5.19355C74.6991 5.19355 62.7963 17.0963 62.7963 31.7792H64.7963C64.7963 18.2009 75.8037 7.19355 89.3819 7.19355V5.19355ZM98.0576 13.8692C98.0576 9.07779 94.1734 5.19355 89.3819 5.19355V7.19355C93.0688 7.19355 96.0576 10.1824 96.0576 13.8692H98.0576ZM98.0576 35.4388V13.8692H96.0576V35.4388H98.0576ZM107.07 33.346C103.558 33.346 100.135 33.7314 96.8409 34.4626L97.2743 36.415C100.427 35.7153 103.705 35.346 107.07 35.346V33.346ZM120.579 33.346H107.07V35.346H120.579V33.346ZM119.504 33.2199C119.504 33.646 119.532 34.0661 119.587 34.4781L121.57 34.214C121.527 33.8893 121.504 33.5575 121.504 33.2199H119.504ZM128.95 23.7742C123.733 23.7742 119.504 28.0032 119.504 33.2199H121.504C121.504 29.1078 124.838 25.7742 128.95 25.7742V23.7742ZM140.412 23.7742H128.95V25.7742H140.412V23.7742ZM149.858 33.2199C149.858 28.0032 145.629 23.7742 140.412 23.7742V25.7742C144.524 25.7742 147.858 29.1078 147.858 33.2199H149.858ZM149.775 34.4781C149.83 34.0661 149.858 33.646 149.858 33.2199H147.858C147.858 33.5575 147.836 33.8893 147.792 34.214L149.775 34.4781ZM177.212 33.346H148.784V35.346H177.212V33.346ZM180.905 33.346H177.212V35.346H180.905V33.346ZM210.564 16.0469C210.564 22.4896 206.326 26.7015 200.344 29.4006C194.354 32.1033 186.837 33.1663 180.875 33.3465L180.935 35.3456C187.029 35.1614 194.841 34.0779 201.167 31.2236C207.5 28.3659 212.564 23.6104 212.564 16.0469H210.564ZM211.206 15.1132L211.195 15.1176L211.933 16.9763L211.944 16.9719L211.206 15.1132Z" fill="#9F9F9F" mask="url(#path-3-inside-2_143_1071)"/>
<path d="M133.591 25.6188C136.59 48.7038 140.788 108.218 133.591 161.595" stroke="#989898"/>
<path d="M135.771 25.6188C138.77 48.7038 142.969 108.218 135.771 161.595" stroke="#989898"/>
<path d="M204.475 28.7155C206.944 47.9292 210.401 97.4629 204.475 141.889" stroke="#989898"/>
<path d="M202.84 29.8416C205.308 49.0553 208.765 98.5889 202.84 143.015" stroke="#989898"/>
<mask id="path-9-inside-3_143_1071" fill="white">
<path fill-rule="evenodd" clip-rule="evenodd" d="M75.2469 192C81.2698 192 86.1523 186.958 86.1523 180.739C86.1523 174.52 81.2698 169.478 75.2469 169.478C69.224 169.478 64.3416 174.52 64.3416 180.739C64.3416 186.958 69.224 192 75.2469 192ZM75.2469 186.933C78.5595 186.933 81.2448 184.16 81.2448 180.739C81.2448 177.318 78.5595 174.545 75.2469 174.545C71.9343 174.545 69.249 177.318 69.249 180.739C69.249 184.16 71.9343 186.933 75.2469 186.933Z"/>
</mask>
<path fill-rule="evenodd" clip-rule="evenodd" d="M75.2469 192C81.2698 192 86.1523 186.958 86.1523 180.739C86.1523 174.52 81.2698 169.478 75.2469 169.478C69.224 169.478 64.3416 174.52 64.3416 180.739C64.3416 186.958 69.224 192 75.2469 192ZM75.2469 186.933C78.5595 186.933 81.2448 184.16 81.2448 180.739C81.2448 177.318 78.5595 174.545 75.2469 174.545C71.9343 174.545 69.249 177.318 69.249 180.739C69.249 184.16 71.9343 186.933 75.2469 186.933Z" fill="#DCDCDC"/>
<path d="M85.1523 180.739C85.1523 186.437 80.6875 191 75.2469 191V193C81.8521 193 87.1523 187.48 87.1523 180.739H85.1523ZM75.2469 170.478C80.6875 170.478 85.1523 175.042 85.1523 180.739H87.1523C87.1523 173.998 81.8521 168.478 75.2469 168.478V170.478ZM65.3416 180.739C65.3416 175.042 69.8063 170.478 75.2469 170.478V168.478C68.6418 168.478 63.3416 173.998 63.3416 180.739H65.3416ZM75.2469 191C69.8063 191 65.3416 186.437 65.3416 180.739H63.3416C63.3416 187.48 68.6418 193 75.2469 193V191ZM80.2448 180.739C80.2448 183.638 77.9772 185.933 75.2469 185.933V187.933C79.1418 187.933 82.2448 184.681 82.2448 180.739H80.2448ZM75.2469 175.545C77.9772 175.545 80.2448 177.84 80.2448 180.739H82.2448C82.2448 176.797 79.1418 173.545 75.2469 173.545V175.545ZM70.249 180.739C70.249 177.84 72.5166 175.545 75.2469 175.545V173.545C71.352 173.545 68.249 176.797 68.249 180.739H70.249ZM75.2469 185.933C72.5166 185.933 70.249 183.638 70.249 180.739H68.249C68.249 184.681 71.352 187.933 75.2469 187.933V185.933Z" fill="#9F9F9F" mask="url(#path-9-inside-3_143_1071)"/>
<mask id="path-11-inside-4_143_1071" fill="white">
<path fill-rule="evenodd" clip-rule="evenodd" d="M237.191 77.7009C250.442 77.7009 261.183 67.9956 261.183 56.0235C261.183 44.0514 250.442 34.3461 237.191 34.3461C223.941 34.3461 213.2 44.0514 213.2 56.0235C213.2 67.9956 223.941 77.7009 237.191 77.7009ZM237.191 65.3138C231.771 65.3138 227.377 61.1544 227.377 56.0235C227.377 50.8926 231.771 46.7332 237.191 46.7332C242.612 46.7332 247.006 50.8926 247.006 56.0235C247.006 61.1544 242.612 65.3138 237.191 65.3138Z"/>
</mask>
<path fill-rule="evenodd" clip-rule="evenodd" d="M237.191 77.7009C250.442 77.7009 261.183 67.9956 261.183 56.0235C261.183 44.0514 250.442 34.3461 237.191 34.3461C223.941 34.3461 213.2 44.0514 213.2 56.0235C213.2 67.9956 223.941 77.7009 237.191 77.7009ZM237.191 65.3138C231.771 65.3138 227.377 61.1544 227.377 56.0235C227.377 50.8926 231.771 46.7332 237.191 46.7332C242.612 46.7332 247.006 50.8926 247.006 56.0235C247.006 61.1544 242.612 65.3138 237.191 65.3138Z" fill="#F0F0F0" fill-opacity="0.2"/>
<path d="M260.183 56.0235C260.183 67.3503 249.987 76.7009 237.191 76.7009V78.7009C250.896 78.7009 262.183 68.6409 262.183 56.0235H260.183ZM237.191 35.3461C249.987 35.3461 260.183 44.6967 260.183 56.0235H262.183C262.183 43.4061 250.896 33.3461 237.191 33.3461V35.3461ZM214.2 56.0235C214.2 44.6967 224.396 35.3461 237.191 35.3461V33.3461C223.487 33.3461 212.2 43.4061 212.2 56.0235H214.2ZM237.191 76.7009C224.396 76.7009 214.2 67.3503 214.2 56.0235H212.2C212.2 68.6409 223.487 78.7009 237.191 78.7009V76.7009ZM226.377 56.0235C226.377 61.7577 231.271 66.3138 237.191 66.3138V64.3138C232.271 64.3138 228.377 60.5511 228.377 56.0235H226.377ZM237.191 45.7332C231.271 45.7332 226.377 50.2893 226.377 56.0235H228.377C228.377 51.4959 232.271 47.7332 237.191 47.7332V45.7332ZM248.006 56.0235C248.006 50.2893 243.112 45.7332 237.191 45.7332V47.7332C242.112 47.7332 246.006 51.4959 246.006 56.0235H248.006ZM237.191 66.3138C243.112 66.3138 248.006 61.7577 248.006 56.0235H246.006C246.006 60.5511 242.112 64.3138 237.191 64.3138V66.3138Z" fill="#9F9F9F" mask="url(#path-11-inside-4_143_1071)"/>
<path d="M54.822 66.1705V128.645C54.822 129.602 54.0462 130.378 53.0892 130.378C50.7086 130.378 48.7788 128.448 48.7788 126.067V68.7481C48.7788 66.3675 50.7086 64.4377 53.0892 64.4377C54.0462 64.4377 54.822 65.2135 54.822 66.1705Z" fill="#B0B0B0" stroke="#9F9F9F" stroke-width="0.5"/>
<path d="M48.2787 36.7998V158.016C48.2787 159.233 47.2921 160.219 46.075 160.219C44.858 160.219 43.8713 159.233 43.8713 158.016V36.7998C43.8713 35.5827 44.858 34.5961 46.075 34.5961C47.2921 34.5961 48.2787 35.5827 48.2787 36.7998Z" fill="#B0B0B0" stroke="#9F9F9F" stroke-width="0.5"/>
<path d="M43.3715 36.7998V158.016C43.3715 159.233 42.3849 160.219 41.1678 160.219C39.9507 160.219 38.9641 159.233 38.9641 158.016V36.7998C38.9641 35.5827 39.9507 34.5961 41.1678 34.5961C42.3849 34.5961 43.3715 35.5827 43.3715 36.7998Z" fill="#B0B0B0" stroke="#9F9F9F" stroke-width="0.5"/>
<path d="M38.4641 36.7998V158.016C38.4641 159.233 37.4774 160.219 36.2603 160.219C35.0433 160.219 34.0566 159.233 34.0566 158.016V36.7998C34.0566 35.5827 35.0433 34.5961 36.2603 34.5961C37.4774 34.5961 38.4641 35.5827 38.4641 36.7998Z" fill="#B0B0B0" stroke="#9F9F9F" stroke-width="0.5"/>
<path d="M33.5566 36.7998V158.016C33.5566 159.233 32.5699 160.219 31.3529 160.219C30.1358 160.219 29.1492 159.233 29.1492 158.016V36.7998C29.1492 35.5827 30.1358 34.5961 31.3529 34.5961C32.5699 34.5961 33.5566 35.5827 33.5566 36.7998Z" fill="#B0B0B0" stroke="#9F9F9F" stroke-width="0.5"/>
<path d="M28.6491 36.7998V158.016C28.6491 159.233 27.6625 160.219 26.4454 160.219C25.2283 160.219 24.2417 159.233 24.2417 158.016V36.7998C24.2417 35.5827 25.2283 34.5961 26.4454 34.5961C27.6625 34.5961 28.6491 35.5827 28.6491 36.7998Z" fill="#B0B0B0" stroke="#9F9F9F" stroke-width="0.5"/>
<path d="M23.7419 36.7998V158.016C23.7419 159.233 22.7552 160.219 21.5382 160.219C20.3211 160.219 19.3345 159.233 19.3345 158.016V36.7998C19.3345 35.5827 20.3211 34.5961 21.5382 34.5961C22.7552 34.5961 23.7419 35.5827 23.7419 36.7998Z" fill="#B0B0B0" stroke="#9F9F9F" stroke-width="0.5"/>
<path d="M11.7007 155.149L11.7007 41.4059C11.7007 37.6449 14.7496 34.5961 18.5105 34.5961C18.6894 34.5961 18.8345 34.7411 18.8345 34.92L18.8345 158.156C18.8345 159.295 17.9107 160.219 16.7712 160.219C13.9709 160.219 11.7007 157.949 11.7007 155.149Z" fill="#B0B0B0" stroke="#9F9F9F" stroke-width="0.5"/>
<path d="M4.06693 133.19L4.06694 63.3648C4.06694 59.6038 7.11579 56.555 10.8767 56.555C11.0556 56.555 11.2007 56.7 11.2007 56.879L11.2007 136.197C11.2007 137.337 10.2769 138.26 9.13743 138.26C6.33707 138.26 4.06693 135.99 4.06693 133.19Z" fill="#B0B0B0" stroke="#9F9F9F" stroke-width="0.5"/>
<path d="M0.250019 116.143L0.250022 79.5416C0.250022 77.7302 1.71848 76.2617 3.52991 76.2617C3.55034 76.2617 3.5669 76.2783 3.5669 76.2987L3.56689 117.647C3.56689 118.148 3.16098 118.554 2.66027 118.554C1.32912 118.554 0.250018 117.474 0.250019 116.143Z" fill="#B0B0B0" stroke="#9F9F9F" stroke-width="0.5"/>
<mask id="path-23-inside-5_143_1071" fill="white">
<path fill-rule="evenodd" clip-rule="evenodd" d="M228.74 30.9677C238.226 30.9677 245.916 24.0354 245.916 15.4839C245.916 6.93236 238.226 0 228.74 0C219.254 0 211.564 6.93236 211.564 15.4839C211.564 24.0354 219.254 30.9677 228.74 30.9677ZM228.74 24.2111C234.311 24.2111 238.827 20.0517 238.827 14.9208C238.827 9.78992 234.311 5.6305 228.74 5.6305C223.168 5.6305 218.652 9.78992 218.652 14.9208C218.652 20.0517 223.168 24.2111 228.74 24.2111Z"/>
</mask>
<path fill-rule="evenodd" clip-rule="evenodd" d="M228.74 30.9677C238.226 30.9677 245.916 24.0354 245.916 15.4839C245.916 6.93236 238.226 0 228.74 0C219.254 0 211.564 6.93236 211.564 15.4839C211.564 24.0354 219.254 30.9677 228.74 30.9677ZM228.74 24.2111C234.311 24.2111 238.827 20.0517 238.827 14.9208C238.827 9.78992 234.311 5.6305 228.74 5.6305C223.168 5.6305 218.652 9.78992 218.652 14.9208C218.652 20.0517 223.168 24.2111 228.74 24.2111Z" fill="#F0F0F0" fill-opacity="0.2"/>
<path d="M244.916 15.4839C244.916 23.3881 237.773 29.9677 228.74 29.9677V31.9677C238.678 31.9677 246.916 24.6827 246.916 15.4839H244.916ZM228.74 1C237.773 1 244.916 7.57968 244.916 15.4839H246.916C246.916 6.28505 238.678 -1 228.74 -1V1ZM212.564 15.4839C212.564 7.57968 219.706 1 228.74 1V-1C218.801 -1 210.564 6.28505 210.564 15.4839H212.564ZM228.74 29.9677C219.706 29.9677 212.564 23.3881 212.564 15.4839H210.564C210.564 24.6827 218.801 31.9677 228.74 31.9677V29.9677ZM237.827 14.9208C237.827 19.4235 233.838 23.2111 228.74 23.2111V25.2111C234.784 25.2111 239.827 20.6799 239.827 14.9208H237.827ZM228.74 6.6305C233.838 6.6305 237.827 10.4181 237.827 14.9208H239.827C239.827 9.16172 234.784 4.6305 228.74 4.6305V6.6305ZM219.652 14.9208C219.652 10.4181 223.642 6.6305 228.74 6.6305V4.6305C222.695 4.6305 217.652 9.16172 217.652 14.9208H219.652ZM228.74 23.2111C223.642 23.2111 219.652 19.4235 219.652 14.9208H217.652C217.652 20.6799 222.695 25.2111 228.74 25.2111V23.2111Z" fill="#9F9F9F" mask="url(#path-23-inside-5_143_1071)"/>
<mask id="path-25-inside-6_143_1071" fill="white">
<path fill-rule="evenodd" clip-rule="evenodd" d="M75.7922 30.9677C82.1162 30.9677 87.2428 25.6739 87.2428 19.1437C87.2428 12.6134 82.1162 7.31964 75.7922 7.31964C69.4682 7.31964 64.3416 12.6134 64.3416 19.1437C64.3416 25.6739 69.4682 30.9677 75.7922 30.9677ZM75.7922 25.6469C79.2704 25.6469 82.09 22.7353 82.09 19.1437C82.09 15.5521 79.2704 12.6405 75.7922 12.6405C72.314 12.6405 69.4943 15.5521 69.4943 19.1437C69.4943 22.7353 72.314 25.6469 75.7922 25.6469Z"/>
</mask>
<path fill-rule="evenodd" clip-rule="evenodd" d="M75.7922 30.9677C82.1162 30.9677 87.2428 25.6739 87.2428 19.1437C87.2428 12.6134 82.1162 7.31964 75.7922 7.31964C69.4682 7.31964 64.3416 12.6134 64.3416 19.1437C64.3416 25.6739 69.4682 30.9677 75.7922 30.9677ZM75.7922 25.6469C79.2704 25.6469 82.09 22.7353 82.09 19.1437C82.09 15.5521 79.2704 12.6405 75.7922 12.6405C72.314 12.6405 69.4943 15.5521 69.4943 19.1437C69.4943 22.7353 72.314 25.6469 75.7922 25.6469Z" fill="#DCDCDC"/>
<path d="M86.2428 19.1437C86.2428 25.1521 81.5339 29.9677 75.7922 29.9677V31.9677C82.6985 31.9677 88.2428 26.1957 88.2428 19.1437H86.2428ZM75.7922 8.31964C81.5339 8.31964 86.2428 13.1352 86.2428 19.1437H88.2428C88.2428 12.0917 82.6985 6.31964 75.7922 6.31964V8.31964ZM65.3416 19.1437C65.3416 13.1352 70.0505 8.31964 75.7922 8.31964V6.31964C68.8859 6.31964 63.3416 12.0917 63.3416 19.1437H65.3416ZM75.7922 29.9677C70.0505 29.9677 65.3416 25.1521 65.3416 19.1437H63.3416C63.3416 26.1957 68.8859 31.9677 75.7922 31.9677V29.9677ZM81.09 19.1437C81.09 22.2135 78.6881 24.6469 75.7922 24.6469V26.6469C79.8527 26.6469 83.09 23.2571 83.09 19.1437H81.09ZM75.7922 13.6405C78.6881 13.6405 81.09 16.0739 81.09 19.1437H83.09C83.09 15.0303 79.8527 11.6405 75.7922 11.6405V13.6405ZM70.4943 19.1437C70.4943 16.0739 72.8963 13.6405 75.7922 13.6405V11.6405C71.7317 11.6405 68.4943 15.0303 68.4943 19.1437H70.4943ZM75.7922 24.6469C72.8963 24.6469 70.4943 22.2135 70.4943 19.1437H68.4943C68.4943 23.2571 71.7317 26.6469 75.7922 26.6469V24.6469Z" fill="#9F9F9F" mask="url(#path-25-inside-6_143_1071)"/>
<path d="M209.655 140.481C196.133 140.481 191.843 155.214 191.389 161.314H208.837L220.561 159.625L239.918 144.985L241.281 140.481H209.655Z" fill="#D1D1D1" stroke="#9F9F9F"/>
<path d="M212.654 111.765H241.281C239.372 110.921 239.335 111.325 238.555 110.358C235.828 106.979 235.828 106.979 233.374 101.912L230.921 106.979C230.921 106.979 217.289 108.481 212.654 106.979V111.765Z" fill="#C4C4C4" stroke="#9F9F9F"/>
<path fill-rule="evenodd" clip-rule="evenodd" d="M221.106 28.9971H209.11V44.1994L212.927 47.5777L215.926 46.1701C217.289 44.0117 221.215 39.1883 226.013 37.1613C230.812 35.1343 224.741 30.8739 221.106 28.9971ZM219.464 31.5308H212.109V40.7443L214.449 42.7918L216.288 41.9387C217.124 40.6306 219.531 37.7073 222.473 36.4788C225.415 35.2503 221.693 32.6683 219.464 31.5308Z" fill="#CDCDCD"/>
<path d="M209.11 28.9971V28.4971H208.61V28.9971H209.11ZM221.106 28.9971L221.335 28.5528L221.227 28.4971H221.106V28.9971ZM209.11 44.1994H208.61V44.4246L208.779 44.5738L209.11 44.1994ZM212.927 47.5777L212.596 47.9521L212.842 48.17L213.139 48.0303L212.927 47.5777ZM215.926 46.1701L216.138 46.6227L216.271 46.5606L216.349 46.4371L215.926 46.1701ZM226.013 37.1613L226.208 37.6219L226.208 37.6219L226.013 37.1613ZM212.109 31.5308V31.0308H211.609V31.5308H212.109ZM219.464 31.5308L219.691 31.0854L219.584 31.0308H219.464V31.5308ZM212.109 40.7443H211.609V40.9712L211.78 41.1206L212.109 40.7443ZM214.449 42.7918L214.12 43.1681L214.365 43.3822L214.66 43.2453L214.449 42.7918ZM216.288 41.9387L216.498 42.3922L216.631 42.3308L216.709 42.2079L216.288 41.9387ZM222.473 36.4788L222.28 36.0174L222.28 36.0174L222.473 36.4788ZM209.11 29.4971H221.106V28.4971H209.11V29.4971ZM209.61 44.1994V28.9971H208.61V44.1994H209.61ZM213.258 47.2033L209.441 43.825L208.779 44.5738L212.596 47.9521L213.258 47.2033ZM215.714 45.7175L212.715 47.1251L213.139 48.0303L216.138 46.6227L215.714 45.7175ZM225.819 36.7007C223.34 37.7478 221.107 39.5068 219.33 41.2606C217.552 43.016 216.205 44.7912 215.503 45.9031L216.349 46.4371C217.01 45.3906 218.308 43.6749 220.033 41.9723C221.759 40.268 223.888 38.6017 226.208 37.6219L225.819 36.7007ZM220.877 29.4413C222.679 30.3718 225.038 31.8718 226.348 33.3539C227.013 34.1074 227.318 34.7561 227.283 35.2603C227.253 35.7022 226.939 36.2277 225.819 36.7007L226.208 37.6219C227.487 37.0814 228.214 36.3142 228.281 35.3286C228.344 34.4052 227.803 33.4914 227.097 32.6918C225.662 31.0678 223.168 29.4992 221.335 28.5528L220.877 29.4413ZM212.109 32.0308H219.464V31.0308H212.109V32.0308ZM212.609 40.7443V31.5308H211.609V40.7443H212.609ZM214.779 42.4155L212.438 40.368L211.78 41.1206L214.12 43.1681L214.779 42.4155ZM216.078 41.4851L214.239 42.3382L214.66 43.2453L216.498 42.3922L216.078 41.4851ZM222.28 36.0174C220.73 36.6647 219.341 37.7484 218.241 38.821C217.141 39.8951 216.306 40.9826 215.867 41.6695L216.709 42.2079C217.106 41.5866 217.893 40.5584 218.94 39.5368C219.988 38.5136 221.274 37.5213 222.666 36.9402L222.28 36.0174ZM219.237 31.9761C220.336 32.5371 221.756 33.4331 222.535 34.3039C222.935 34.7522 223.074 35.0922 223.059 35.3128C223.048 35.4708 222.938 35.7427 222.28 36.0174L222.666 36.9402C223.479 36.6007 224.007 36.0892 224.056 35.3819C224.101 34.7374 223.721 34.1304 223.28 33.6375C222.376 32.6257 220.821 31.6619 219.691 31.0854L219.237 31.9761Z" fill="#9F9F9F"/>
<rect x="59.9795" y="64.1877" width="142.86" height="57.9941" fill="#DCDCDC"/>
<path d="M75.2555 74.4105H77.1213V81.0968C77.1213 81.7947 77.1043 82.5015 77.0702 83.217C77.0361 83.9267 77.0106 84.4076 76.9935 84.6598H77.0702L83.4345 74.4105H85.8115V87.2727H83.9372V80.6393C83.9372 79.6246 83.9911 78.3929 84.099 76.9443H84.0309L77.641 87.2727H75.2555V74.4105Z" fill="#A1A1A1"/>
<path d="M90.9404 81.4311C91.8549 81.4311 92.528 81.3284 92.9596 81.1232C93.3913 80.912 93.6071 80.5894 93.6071 80.1554C93.6071 79.3636 92.9255 78.9677 91.5624 78.9677C90.6536 78.9677 89.7249 79.1789 88.7764 79.6012L88.1289 78.0616C89.2251 77.5982 90.4349 77.3666 91.7583 77.3666C92.9284 77.3666 93.8372 77.5894 94.4847 78.0352C95.1322 78.4751 95.4559 79.1085 95.4559 79.9355C95.4559 81.0264 94.851 81.7419 93.6412 82.0821V82.1525C94.3966 82.3636 94.9362 82.6657 95.26 83.0586C95.5894 83.4516 95.7541 83.9384 95.7541 84.519C95.7541 85.4105 95.3736 86.1232 94.6125 86.6569C93.857 87.1847 92.8006 87.4487 91.4431 87.4487C89.9607 87.4487 88.8275 87.2463 88.0437 86.8416V85.0557C89.0831 85.5601 90.1595 85.8123 91.2727 85.8123C92.0736 85.8123 92.6898 85.6979 93.1215 85.4692C93.5589 85.2346 93.7775 84.8798 93.7775 84.4047C93.7775 83.9179 93.5589 83.5601 93.1215 83.3314C92.6842 83.1026 92.0083 82.9883 91.0938 82.9883H89.9436V81.4311H90.9404Z" fill="#A1A1A1"/>
<path d="M106.285 82.39C106.285 83.9795 105.89 85.2199 105.1 86.1114C104.311 87.0029 103.212 87.4487 101.803 87.4487C100.923 87.4487 100.145 87.2434 99.4688 86.8328C98.7929 86.4223 98.2731 85.8328 97.9096 85.0645C97.5461 84.2962 97.3644 83.4047 97.3644 82.39C97.3644 80.8123 97.7563 79.5806 98.5401 78.695C99.3239 77.8094 100.429 77.3666 101.854 77.3666C103.217 77.3666 104.297 77.8211 105.092 78.7302C105.887 79.6334 106.285 80.8534 106.285 82.39ZM99.4262 82.39C99.4262 84.6363 100.23 85.7595 101.837 85.7595C103.428 85.7595 104.223 84.6363 104.223 82.39C104.223 80.1671 103.422 79.0557 101.82 79.0557C100.98 79.0557 100.369 79.3431 99.9885 79.9179C99.6136 80.4927 99.4262 81.3167 99.4262 82.39Z" fill="#A1A1A1"/>
<path d="M108.048 81.4311C108.048 79.261 108.403 77.5924 109.113 76.4252C109.829 75.2581 110.965 74.5073 112.521 74.173C113.697 73.9267 115.051 73.6862 116.585 73.4516L116.866 75.2727C115.003 75.566 113.64 75.7947 112.777 75.9589C111.885 76.129 111.24 76.5073 110.843 77.0938C110.451 77.6803 110.224 78.563 110.161 79.7419H110.289C110.613 79.2551 111.036 78.8798 111.558 78.6158C112.081 78.346 112.64 78.2111 113.237 78.2111C114.395 78.2111 115.299 78.5894 115.946 79.346C116.594 80.1026 116.917 81.1642 116.917 82.5308C116.917 84.0968 116.523 85.3079 115.733 86.1642C114.949 87.0205 113.862 87.4487 112.47 87.4487C111.09 87.4487 110.008 86.9208 109.224 85.8651C108.44 84.8094 108.048 83.3314 108.048 81.4311ZM112.606 85.7595C114.094 85.7595 114.838 84.7507 114.838 82.7331C114.838 80.7859 114.165 79.8123 112.819 79.8123C112.45 79.8123 112.092 79.8944 111.746 80.0586C111.399 80.2229 111.078 80.4399 110.783 80.7097C110.493 80.9795 110.269 81.2581 110.11 81.5454C110.11 82.9296 110.323 83.9795 110.749 84.695C111.175 85.4047 111.794 85.7595 112.606 85.7595Z" fill="#A1A1A1"/>
<path d="M124.006 87.4487C122.813 87.4487 121.887 87.0059 121.228 86.1202H121.109C121.189 86.9413 121.228 87.4399 121.228 87.6158V91.6012H119.226V77.5425H120.845C120.89 77.7243 120.984 78.1583 121.126 78.8446H121.228C121.853 77.8592 122.79 77.3666 124.04 77.3666C125.216 77.3666 126.13 77.8064 126.783 78.6862C127.442 79.566 127.772 80.8006 127.772 82.39C127.772 83.9795 127.436 85.2199 126.766 86.1114C126.102 87.0029 125.182 87.4487 124.006 87.4487ZM123.52 79.0557C122.725 79.0557 122.143 79.2962 121.774 79.7771C121.41 80.2581 121.228 81.0264 121.228 82.0821V82.39C121.228 83.5748 121.41 84.434 121.774 84.9677C122.137 85.4956 122.731 85.7595 123.554 85.7595C124.247 85.7595 124.781 85.4663 125.156 84.8798C125.531 84.2932 125.718 83.4575 125.718 82.3724C125.718 81.2815 125.531 80.4575 125.156 79.9003C124.787 79.3372 124.242 79.0557 123.52 79.0557Z" fill="#A1A1A1"/>
<path d="M135.993 87.2727L135.593 85.9179H135.525C135.07 86.5103 134.613 86.9149 134.153 87.132C133.693 87.3431 133.102 87.4487 132.381 87.4487C131.455 87.4487 130.731 87.1906 130.208 86.6745C129.691 86.1583 129.433 85.4281 129.433 84.4839C129.433 83.4809 129.794 82.7243 130.515 82.2141C131.236 81.7038 132.335 81.4252 133.812 81.3783L135.439 81.3255V80.8064C135.439 80.1847 135.297 79.7214 135.013 79.4164C134.735 79.1056 134.301 78.9501 133.71 78.9501C133.227 78.9501 132.764 79.0234 132.321 79.1701C131.878 79.3167 131.452 79.4897 131.043 79.6891L130.396 78.2111C130.907 77.9355 131.466 77.7273 132.074 77.5865C132.682 77.4399 133.255 77.3666 133.795 77.3666C134.994 77.3666 135.897 77.6363 136.504 78.1759C137.118 78.7155 137.424 79.563 137.424 80.7185V87.2727H135.993ZM133.011 85.8651C133.738 85.8651 134.32 85.6569 134.758 85.2405C135.201 84.8182 135.422 84.2287 135.422 83.4721V82.6276L134.213 82.6803C133.27 82.7155 132.582 82.8798 132.151 83.173C131.725 83.4604 131.512 83.9032 131.512 84.5015C131.512 84.9355 131.637 85.2727 131.887 85.5132C132.137 85.7478 132.511 85.8651 133.011 85.8651Z" fill="#A1A1A1"/>
<path d="M144.862 82.2668V77.5425H146.728V82.2668L150.358 77.5425H152.47L148.764 82.2493L152.803 87.2727H150.596L146.728 82.3372V87.2727H144.862V82.3372L141.003 87.2727H138.805L142.835 82.2493L139.137 77.5425H141.25L144.862 82.2668Z" fill="#A1A1A1"/>
<path d="M158.375 87.4487C156.909 87.4487 155.762 87.0088 154.933 86.129C154.109 85.2434 153.697 84.0264 153.697 82.478C153.697 80.8885 154.081 79.6393 154.847 78.7302C155.614 77.8211 156.668 77.3666 158.008 77.3666C159.252 77.3666 160.235 77.7566 160.956 78.5366C161.678 79.3167 162.038 80.39 162.038 81.7566V82.8739H155.759C155.788 83.8182 156.035 84.5454 156.5 85.0557C156.966 85.5601 157.622 85.8123 158.468 85.8123C159.025 85.8123 159.542 85.7595 160.019 85.6539C160.502 85.5425 161.019 85.3607 161.57 85.1085V86.7888C161.081 87.0293 160.587 87.1994 160.087 87.2991C159.587 87.3988 159.017 87.4487 158.375 87.4487ZM158.008 78.9325C157.372 78.9325 156.861 79.1407 156.475 79.5572C156.094 79.9736 155.867 80.5806 155.793 81.3783H160.07C160.059 80.5748 159.871 79.9677 159.508 79.5572C159.144 79.1407 158.644 78.9325 158.008 78.9325Z" fill="#A1A1A1"/>
<path d="M166.315 77.5425V81.4487H170.754V77.5425H172.756V87.2727H170.754V83.0762H166.315V87.2727H164.313V77.5425H166.315Z" fill="#A1A1A1"/>
<path d="M177.544 77.5425V82.5308C177.544 83.1114 177.499 83.9648 177.408 85.0909L182.136 77.5425H184.582V87.2727H182.656V82.3724C182.656 82.1026 182.67 81.6657 182.699 81.0616C182.733 80.4575 182.761 80.0176 182.784 79.7419L178.072 87.2727H175.627V77.5425H177.544Z" fill="#A1A1A1"/>
<path d="M191.551 87.4487C190.085 87.4487 188.938 87.0088 188.109 86.129C187.285 85.2434 186.873 84.0264 186.873 82.478C186.873 80.8885 187.257 79.6393 188.024 78.7302C188.79 77.8211 189.844 77.3666 191.184 77.3666C192.428 77.3666 193.411 77.7566 194.132 78.5366C194.854 79.3167 195.214 80.39 195.214 81.7566V82.8739H188.935C188.964 83.8182 189.211 84.5454 189.676 85.0557C190.142 85.5601 190.798 85.8123 191.645 85.8123C192.201 85.8123 192.718 85.7595 193.195 85.6539C193.678 85.5425 194.195 85.3607 194.746 85.1085V86.7888C194.257 87.0293 193.763 87.1994 193.263 87.2991C192.763 87.3988 192.193 87.4487 191.551 87.4487ZM191.184 78.9325C190.548 78.9325 190.037 79.1407 189.651 79.5572C189.27 79.9736 189.043 80.5806 188.969 81.3783H193.246C193.235 80.5748 193.047 79.9677 192.684 79.5572C192.32 79.1407 191.821 78.9325 191.184 78.9325Z" fill="#A1A1A1"/>
<path d="M83.2215 104.806C83.2215 105.956 82.5711 106.651 81.2705 106.891V106.962C81.9975 107.05 82.5541 107.287 82.9403 107.674C83.3266 108.062 83.5197 108.563 83.5197 109.179C83.5197 110.1 83.1789 110.809 82.4973 111.308C81.8214 111.801 80.8359 112.047 79.5409 112.047H75.0425V102.317H79.5239C81.989 102.317 83.2215 103.147 83.2215 104.806ZM81.4664 109.056C81.4664 108.586 81.2903 108.255 80.9382 108.062C80.586 107.862 80.0578 107.762 79.3535 107.762H77.0446V110.516H79.4046C80.7791 110.516 81.4664 110.029 81.4664 109.056ZM81.2193 104.982C81.2193 104.595 81.0717 104.317 80.7763 104.147C80.4866 103.971 80.0521 103.883 79.4728 103.883H77.0446V106.223H79.1746C79.8448 106.223 80.3532 106.135 80.6996 105.959C81.0461 105.777 81.2193 105.452 81.2193 104.982Z" fill="#A1A1A1"/>
<path d="M98.4805 107.164C98.4805 108.754 98.0857 109.994 97.2962 110.886C96.5067 111.777 95.4077 112.223 93.999 112.223C93.1187 112.223 92.3405 112.018 91.6646 111.607C90.9887 111.196 90.469 110.607 90.1055 109.839C89.742 109.07 89.5602 108.179 89.5602 107.164C89.5602 105.586 89.9521 104.355 90.736 103.469C91.5198 102.584 92.6245 102.141 94.0502 102.141C95.4133 102.141 96.4925 102.595 97.2877 103.504C98.0829 104.408 98.4805 105.628 98.4805 107.164ZM91.622 107.164C91.622 109.411 92.4257 110.534 94.0331 110.534C95.6235 110.534 96.4187 109.411 96.4187 107.164C96.4187 104.941 95.6178 103.83 94.0161 103.83C93.1755 103.83 92.5649 104.117 92.1843 104.692C91.8095 105.267 91.622 106.091 91.622 107.164Z" fill="#A1A1A1"/>
<path d="M100.244 106.205C100.244 104.035 100.599 102.367 101.309 101.199C102.025 100.032 103.161 99.2815 104.717 98.9472C105.893 98.7009 107.247 98.4604 108.781 98.2258L109.062 100.047C107.199 100.34 105.836 100.569 104.973 100.733C104.081 100.903 103.436 101.282 103.039 101.868C102.647 102.455 102.419 103.337 102.357 104.516H102.485C102.809 104.029 103.232 103.654 103.754 103.39C104.277 103.12 104.836 102.985 105.433 102.985C106.591 102.985 107.494 103.364 108.142 104.12C108.789 104.877 109.113 105.938 109.113 107.305C109.113 108.871 108.718 110.082 107.929 110.938C107.145 111.795 106.057 112.223 104.666 112.223C103.286 112.223 102.204 111.695 101.42 110.639C100.636 109.584 100.244 108.106 100.244 106.205ZM104.802 110.534C106.29 110.534 107.034 109.525 107.034 107.507C107.034 105.56 106.361 104.586 105.015 104.586C104.646 104.586 104.288 104.669 103.942 104.833C103.595 104.997 103.274 105.214 102.979 105.484C102.689 105.754 102.465 106.032 102.306 106.32C102.306 107.704 102.519 108.754 102.945 109.469C103.371 110.179 103.99 110.534 104.802 110.534Z" fill="#A1A1A1"/>
<path d="M116.202 112.223C115.009 112.223 114.083 111.78 113.424 110.894H113.305C113.384 111.716 113.424 112.214 113.424 112.39V116.375H111.422V102.317H113.041C113.086 102.499 113.18 102.933 113.322 103.619H113.424C114.049 102.633 114.986 102.141 116.236 102.141C117.411 102.141 118.326 102.581 118.979 103.46C119.638 104.34 119.967 105.575 119.967 107.164C119.967 108.754 119.632 109.994 118.962 110.886C118.298 111.777 117.377 112.223 116.202 112.223ZM115.716 103.83C114.921 103.83 114.339 104.07 113.969 104.551C113.606 105.032 113.424 105.801 113.424 106.856V107.164C113.424 108.349 113.606 109.208 113.969 109.742C114.333 110.27 114.927 110.534 115.75 110.534C116.443 110.534 116.977 110.24 117.352 109.654C117.727 109.067 117.914 108.232 117.914 107.147C117.914 106.056 117.727 105.232 117.352 104.674C116.983 104.111 116.437 103.83 115.716 103.83Z" fill="#A1A1A1"/>
<path d="M128.189 112.047L127.789 110.692H127.72C127.266 111.284 126.809 111.689 126.349 111.906C125.889 112.117 125.298 112.223 124.577 112.223C123.651 112.223 122.927 111.965 122.404 111.449C121.887 110.933 121.629 110.202 121.629 109.258C121.629 108.255 121.989 107.499 122.711 106.988C123.432 106.478 124.531 106.199 126.008 106.152L127.635 106.1V105.581C127.635 104.959 127.493 104.496 127.209 104.191C126.931 103.88 126.496 103.724 125.906 103.724C125.423 103.724 124.96 103.798 124.517 103.944C124.074 104.091 123.648 104.264 123.239 104.463L122.592 102.985C123.103 102.71 123.662 102.501 124.27 102.361C124.878 102.214 125.451 102.141 125.991 102.141C127.189 102.141 128.092 102.411 128.7 102.95C129.314 103.49 129.62 104.337 129.62 105.493V112.047H128.189ZM125.207 110.639C125.934 110.639 126.516 110.431 126.954 110.015C127.397 109.592 127.618 109.003 127.618 108.246V107.402L126.408 107.455C125.466 107.49 124.778 107.654 124.347 107.947C123.921 108.235 123.708 108.677 123.708 109.276C123.708 109.71 123.833 110.047 124.082 110.287C124.332 110.522 124.707 110.639 125.207 110.639Z" fill="#A1A1A1"/>
<path d="M131.87 106.205C131.87 104.035 132.225 102.367 132.935 101.199C133.65 100.032 134.786 99.2815 136.342 98.9472C137.518 98.7009 138.873 98.4604 140.406 98.2258L140.688 100.047C138.825 100.34 137.461 100.569 136.598 100.733C135.706 100.903 135.062 101.282 134.664 101.868C134.272 102.455 134.045 103.337 133.982 104.516H134.11C134.434 104.029 134.857 103.654 135.38 103.39C135.902 103.12 136.462 102.985 137.058 102.985C138.217 102.985 139.12 103.364 139.767 104.12C140.415 104.877 140.739 105.938 140.739 107.305C140.739 108.871 140.344 110.082 139.554 110.938C138.771 111.795 137.683 112.223 136.291 112.223C134.911 112.223 133.829 111.695 133.045 110.639C132.261 109.584 131.87 108.106 131.87 106.205ZM136.428 110.534C137.916 110.534 138.66 109.525 138.66 107.507C138.66 105.56 137.987 104.586 136.641 104.586C136.271 104.586 135.914 104.669 135.567 104.833C135.221 104.997 134.9 105.214 134.604 105.484C134.315 105.754 134.09 106.032 133.931 106.32C133.931 107.704 134.144 108.754 134.57 109.469C134.996 110.179 135.615 110.534 136.428 110.534Z" fill="#A1A1A1"/>
<path d="M151.405 107.164C151.405 108.754 151.011 109.994 150.221 110.886C149.432 111.777 148.333 112.223 146.924 112.223C146.044 112.223 145.266 112.018 144.59 111.607C143.914 111.196 143.394 110.607 143.031 109.839C142.667 109.07 142.485 108.179 142.485 107.164C142.485 105.586 142.877 104.355 143.661 103.469C144.445 102.584 145.55 102.141 146.975 102.141C148.338 102.141 149.418 102.595 150.213 103.504C151.008 104.408 151.405 105.628 151.405 107.164ZM144.547 107.164C144.547 109.411 145.351 110.534 146.958 110.534C148.549 110.534 149.344 109.411 149.344 107.164C149.344 104.941 148.543 103.83 146.941 103.83C146.1 103.83 145.49 104.117 145.109 104.692C144.734 105.267 144.547 106.091 144.547 107.164Z" fill="#A1A1A1"/>
<path d="M160.794 102.317V103.935H157.727V112.047H155.717V103.935H152.649V102.317H160.794Z" fill="#A1A1A1"/>
<path d="M168.454 102.317H170.652L166.758 107.006L170.984 112.047H168.684L164.611 107.111V112.047H162.609V102.317H164.611V107.041L168.454 102.317Z" fill="#A1A1A1"/>
<path d="M176.658 112.223C175.193 112.223 174.045 111.783 173.216 110.903C172.393 110.018 171.981 108.801 171.981 107.252C171.981 105.663 172.364 104.413 173.131 103.504C173.898 102.595 174.951 102.141 176.292 102.141C177.536 102.141 178.518 102.531 179.24 103.311C179.961 104.091 180.322 105.164 180.322 106.531V107.648H174.043C174.071 108.592 174.318 109.32 174.784 109.83C175.25 110.334 175.906 110.586 176.752 110.586C177.309 110.586 177.825 110.534 178.303 110.428C178.785 110.317 179.302 110.135 179.853 109.883V111.563C179.365 111.804 178.87 111.974 178.371 112.073C177.871 112.173 177.3 112.223 176.658 112.223ZM176.292 103.707C175.656 103.707 175.144 103.915 174.758 104.331C174.378 104.748 174.151 105.355 174.077 106.152H178.354C178.342 105.349 178.155 104.742 177.791 104.331C177.428 103.915 176.928 103.707 176.292 103.707Z" fill="#A1A1A1"/>
</svg>
